<?xml version="1.0" encoding="UTF-8"?>
<svg width="64px" height="16px" viewBox="0 0 64 16" version="1.1" xmlns="http://www.w3.org/2000/svg" xmlns:xlink="http://www.w3.org/1999/xlink">
    <!-- Generator: Sketch 52.1 (67048) - http://www.bohemiancoding.com/sketch -->
    <title>cd-icons</title>
    <desc>Created with Sketch.</desc>
    <g id="Problems" stroke="none" stroke-width="1" fill="none" fill-rule="evenodd">
        <g id="cd-icons">
            <g id="Group" transform="translate(0.000000, 3.000000)" fill="#5E5E5E">
                <polygon id="Path" points="8 9.6000004 0.3 1.9000001 1.7 0.4000001 8 6.6999998 14.3000002 0.4000001 15.6999998 1.9000001"></polygon>
            </g>
            <g id="Group" transform="translate(16.000000, 0.000000)" fill="#6C7079">
                <path d="M15,3 L8.3999996,3 L5.6999998,0.3 C5.5,0.1 5.3000002,0 5,0 L1,0 C0.4,0 0,0.4 0,1 L0,15 C0,15.6000004 0.4,16 1,16 L15,16 C15.6000004,16 16,15.6000004 16,15 L16,4 C16,3.4000001 15.6000004,3 15,3 Z" id="Path"></path>
            </g>
            <g id="Group" transform="translate(32.000000, 0.000000)" fill="#6C7079">
                <path d="M15.8000002,7.4000001 C15.6000004,7.1999998 15.3000002,7 15,7 L4,7 C3.5999999,7 3.2,7.1999998 3.0999999,7.5999999 L0.0999999,14.6000004 C-0.1,15.1999998 0.1,16 1,16 L12,16 C12.3999996,16 12.8000002,15.8000002 12.8999996,15.3999996 L15.8999996,8.3999996 C16.1000004,8.1000004 16,7.6999998 15.8000002,7.4000001 Z" id="Path"></path>
                <path d="M1.2,6.8000002 C1.7,5.6999998 2.8,5 4,5 L13,5 L13,3 C13,2.4000001 12.6000004,2 12,2 L6.4000001,2 L4.6999998,0.3 C4.5,0.1 4.3000002,0 4,0 L1,0 C0.4,0 0,0.4 0,1 L0,9.6999998 L1.2,6.8000002 Z" id="Path"></path>
            </g>
            <g id="Group" transform="translate(48.000000, 0.000000)" fill="#6C7079" fill-rule="nonzero">
                <path d="M15,0 L1,0 C0.4,0 0,0.4 0,1 L0,15 C0,15.6000004 0.4,16 1,16 L15,16 C15.6000004,16 16,15.6000004 16,15 L16,1 C16,0.4 15.6000004,0 15,0 Z M6,4 C6.5999999,4 7,4.4000001 7,5 C7,5.5999999 6.5999999,6 6,6 C5.4000001,6 5,5.5999999 5,5 C5,4.4000001 5.4000001,4 6,4 Z M3,12 L5,8 L7,10 L10,6 L13,12 L3,12 Z" id="Shape"></path>
            </g>
        </g>
    </g>
</svg>