<?xml version="1.0" encoding="UTF-8"?>
<svg width="455px" height="333px" viewBox="0 0 455 333" version="1.1" xmlns="http://www.w3.org/2000/svg" xmlns:xlink="http://www.w3.org/1999/xlink">
    <!-- Generator: Sketch 52.1 (67048) - http://www.bohemiancoding.com/sketch -->
    <title>Artboard</title>
    <desc>Created with Sketch.</desc>
    <defs>
        <linearGradient x1="50%" y1="100%" x2="50%" y2="0%" id="linearGradient-1">
            <stop stop-color="#808080" stop-opacity="0.25" offset="0%"></stop>
            <stop stop-color="#808080" stop-opacity="0.12" offset="54%"></stop>
            <stop stop-color="#808080" stop-opacity="0.1" offset="100%"></stop>
        </linearGradient>
    </defs>
    <g id="Artboard" stroke="none" stroke-width="1" fill="none" fill-rule="evenodd">
        <g id="typing" transform="translate(5.000000, 2.000000)">
            <path d="M0,0 L299.838418,0 L299.838418,217.360335 L109.198249,217.360335 L88.6,254.386606 L66.9605763,217.360335 L0,217.360335 L0,0 Z" id="Path" fill="url(#linearGradient-1)"></path>
            <polygon id="Path" fill="#F5F5F5" points="3.78927684 4.17133942 295.07304 4.17133942 295.07304 214.300685 106.014655 214.300685 88.5048927 252.033029 68.8376949 214.300685 3.78927684 214.300685"></polygon>
            <rect id="Rectangle" fill="#4A90E2" opacity="0.3" transform="translate(149.140831, 71.796613) rotate(-180.000000) translate(-149.140831, -71.796613) " x="40.6358644" y="67.1520548" width="217.009932" height="9.2891172"></rect>
            <rect id="Rectangle" fill="#4A90E2" opacity="0.3" transform="translate(149.140831, 92.112489) rotate(-180.000000) translate(-149.140831, -92.112489) " x="40.6358644" y="87.46793" width="217.009932" height="9.2891172"></rect>
            <rect id="Rectangle" fill="#4A90E2" opacity="0.3" transform="translate(149.140831, 112.428364) rotate(-180.000000) translate(-149.140831, -112.428364) " x="40.6358644" y="107.783805" width="217.009932" height="9.2891172"></rect>
            <rect id="Rectangle" fill="#4A90E2" opacity="0.3" transform="translate(149.140831, 132.744239) rotate(-180.000000) translate(-149.140831, -132.744239) " x="40.6358644" y="128.09968" width="217.009932" height="9.2891172"></rect>
            <polygon id="Path" fill="url(#linearGradient-1)" points="443 75.1141553 146.665537 75.1141553 146.665537 292.048843 337.881356 291.943683 355.901695 329 376.820305 292.048843 443 292.048843"></polygon>
            <polygon id="Path" fill="#FFFFFF" points="440.712418 78.4692542 149.428655 78.4692542 149.428655 288.5986 338.48704 288.5986 355.996802 326.330944 375.664 288.5986 440.712418 288.5986"></polygon>
            <ellipse id="Oval" fill="#3997EE" cx="242.268441" cy="183.533927" rx="19.1466102" ry="19.1541096"></ellipse>
            <ellipse id="Oval" fill="#3997EE" opacity="0.6" cx="295.07304" cy="183.533927" rx="19.1466102" ry="19.1541096"></ellipse>
            <ellipse id="Oval" fill="#3997EE" opacity="0.3" cx="347.872633" cy="183.533927" rx="19.1466102" ry="19.1541096"></ellipse>
        </g>
    </g>
</svg>