<?xml version="1.0" encoding="UTF-8"?>
<svg width="306px" height="269px" viewBox="0 0 306 269" version="1.1" xmlns="http://www.w3.org/2000/svg" xmlns:xlink="http://www.w3.org/1999/xlink">
    <!-- Generator: Sketch 52.1 (67048) - http://www.bohemiancoding.com/sketch -->
    <title>asset-110</title>
    <desc>Created with Sketch.</desc>
    <g id="Submissions" stroke="none" stroke-width="1" fill="none" fill-rule="evenodd">
        <g id="Submission-List---Empty" transform="translate(-990.000000, -439.000000)">
            <g id="asset-110" transform="translate(990.000000, 439.000000)">
                <g id="Group" opacity="0.5">
                    <path d="M305.287229,84.2989498 C305.090602,85.5763927 304.844819,86.8702131 304.54988,88.180411 C302.092048,99.3211872 296.156386,109.368767 293.415904,120.435845 C286.804337,147.249863 308.48241,171.140502 301.108916,197.291233 C298.884578,205.15242 293.932048,211.908128 288.414217,217.816301 C274.244819,233.035068 256.179759,243.709087 238.397349,254.174292 C230.151325,259.026119 221.106506,264.000776 211.71759,262.649635 C202.844819,261.335342 195.680241,254.542785 187.139277,251.705388 C170.106506,246.042877 152.619036,256.827443 135.733735,262.956712 C122.412289,267.783973 107.935663,269.761553 94.0489157,267.1821 C80.1621687,264.602648 66.9144578,257.208219 58.2874699,245.6621 C52.3395181,237.727215 48.4561446,227.802466 40.406747,222.103105 C33.033253,216.870502 23.4845783,216.158082 15.6318072,211.760731 C5.99027708,206.124513 0.045948031,195.815807 -2.85216295e-15,184.651918 C0.098313253,166.153562 15.7424096,152.113973 22.7718072,135.114155 C28.4862651,121.295662 28.3756627,105.720685 27.3433735,90.7475799 C26.1759036,73.8091781 24.0990361,56.3548858 28.3879518,39.6744292 C34.9257831,14.2975342 52.9662651,8.7947032 75.6151807,5.40456621 C95.8922892,2.38292237 117.066506,-3.51296804 137.319036,2.94794521 C146.793976,5.95730594 154.708193,12.7744292 164.441205,15.0713699 C182.248193,19.3704566 199.145783,8.40164384 216.731566,7.8243379 C231.478554,7.3452968 247.196386,11.1530594 260.714458,17.1472146 C286.779759,28.6442009 310.153735,52.9278995 305.287229,84.2989498 Z" id="Path" fill="#95C4EE" opacity="0.4"></path>
                    <polygon id="Path" fill-opacity="0.5" fill="#FFD204" points="34.8028916 186.383836 31.0546988 185.315205 27.1713253 185.794247 27.0361446 181.900502 25.3771084 178.362968 29.0392771 177.02411 31.8903614 174.346393 34.2990361 177.429452 37.7277108 179.308767 35.540241 182.551507"></polygon>
                    <polygon id="Path" fill-opacity="0.5" fill="#FFD204" points="83.3450602 29.4794521 79.5845783 28.4108219 75.713494 28.889863 75.5660241 24.9961187 73.906988 21.4585845 77.5814458 20.119726 80.4325301 17.4542922 82.8289157 20.5250685 86.2575904 22.4043836 84.0701205 25.6471233"></polygon>
                    <polygon id="Path" fill-opacity="0.5" fill="#FFD204" points="280.254217 216.182648 276.506024 215.114018 272.622651 215.593059 272.48747 211.699315 270.828434 208.161781 274.490602 206.822922 277.341687 204.157489 279.750361 207.228265 283.179036 209.10758 280.991566 212.35032"></polygon>
                    <polygon id="Path" fill-opacity="0.5" fill="#FFD204" points="95.6956627 257.208219 91.9351807 256.127306 88.0640964 256.61863 87.9166265 252.712603 86.2575904 249.175068 89.9320482 247.848493 92.7831325 245.170776 95.1795181 248.241553 98.6081928 250.133151 96.4207229 253.363607"></polygon>
                    <polygon id="Path" fill-opacity="0.5" fill="#FFD204" points="266.625542 57.9271233 261.218313 56.3794521 255.626747 57.079589 255.43012 51.46621 253.033735 46.3687215 258.318072 44.440274 262.422651 40.5956621 265.888193 45.029863 270.828434 47.7321461 267.68241 52.399726"></polygon>
                    <path d="M37.1009639,142.877078 L68.8192771,142.877078 C69.6676663,142.877078 70.3554217,142.189661 70.3554217,141.341689 C70.3554217,140.493718 69.6676663,139.806301 68.8192771,139.806301 L37.1009639,139.806301 C36.2525746,139.806301 35.5648193,140.493718 35.5648193,141.341689 C35.5648193,142.189661 36.2525746,142.877078 37.1009639,142.877078 Z" id="Path" fill="#FFFFFF"></path>
                    <path d="M40.0872289,149.411689 L55.9156627,149.411689 C56.7640519,149.411689 57.4518072,148.724273 57.4518072,147.876301 C57.4518072,147.02833 56.7640519,146.340913 55.9156627,146.340913 L40.0872289,146.340913 C39.2388397,146.340913 38.5510843,147.02833 38.5510843,147.876301 C38.5510843,148.724273 39.2388397,149.411689 40.0872289,149.411689 Z" id="Path" fill="#FFFFFF"></path>
                    <path d="M76.7826506,142.877078 L87.5971084,142.877078 C88.4454977,142.877078 89.133253,142.189661 89.133253,141.341689 C89.133253,140.493718 88.4454977,139.806301 87.5971084,139.806301 L76.7826506,139.806301 C75.9342614,139.806301 75.246506,140.493718 75.246506,141.341689 C75.246506,142.189661 75.9342614,142.877078 76.7826506,142.877078 Z" id="Path" fill="#FFFFFF"></path>
                    <path d="M19.4414458,155.995434 L27.3925301,155.995434 C28.2409193,155.995434 28.9286747,155.308017 28.9286747,154.460046 C28.9286747,153.612074 28.2409193,152.924658 27.3925301,152.924658 L19.4414458,152.924658 C18.5930566,152.924658 17.9053012,153.612074 17.9053012,154.460046 C17.9053012,155.308017 18.5930566,155.995434 19.4414458,155.995434 Z" id="Path" fill="#FFFFFF"></path>
                    <path d="M33.9426506,155.995434 L65.6118072,155.995434 C66.4601965,155.995434 67.1479518,155.308017 67.1479518,154.460046 C67.1479518,153.612074 66.4601965,152.924658 65.6118072,152.924658 L33.9426506,152.924658 C33.0942614,152.924658 32.406506,153.612074 32.406506,154.460046 C32.406506,155.308017 33.0942614,155.995434 33.9426506,155.995434 Z" id="Path" fill="#FFFFFF"></path>
                    <path d="M179.81494,223.687626 L148.133494,223.687626 C147.285105,223.687626 146.597349,224.375042 146.597349,225.223014 C146.597349,226.070985 147.285105,226.758402 148.133494,226.758402 L179.81494,226.758402 C180.663329,226.758402 181.351084,226.070985 181.351084,225.223014 C181.351084,224.375042 180.663329,223.687626 179.81494,223.687626 Z" id="Path" fill="#FFFFFF"></path>
                    <path d="M176.828675,230.222237 L160.987952,230.222237 C160.139563,230.222237 159.451807,230.909654 159.451807,231.757626 C159.451807,232.605597 160.139563,233.293014 160.987952,233.293014 L176.828675,233.293014 C177.677064,233.293014 178.364819,232.605597 178.364819,231.757626 C178.364819,230.909654 177.677064,230.222237 176.828675,230.222237 Z" id="Path" fill="#FFFFFF"></path>
                    <path d="M140.096386,223.687626 L129.281928,223.687626 C128.433538,223.687626 127.745783,224.375042 127.745783,225.223014 C127.745783,226.070985 128.433538,226.758402 129.281928,226.758402 L140.096386,226.758402 C140.944775,226.758402 141.63253,226.070985 141.63253,225.223014 C141.63253,224.375042 140.944775,223.687626 140.096386,223.687626 Z" id="Path" fill="#FFFFFF"></path>
                    <path d="M197.474458,236.769132 L189.523373,236.769132 C188.674984,236.769132 187.987229,237.456549 187.987229,238.304521 C187.987229,239.152492 188.674984,239.839909 189.523373,239.839909 L197.474458,239.839909 C198.322847,239.839909 199.010602,239.152492 199.010602,238.304521 C199.010602,237.456549 198.322847,236.769132 197.474458,236.769132 Z" id="Path" fill="#FFFFFF"></path>
                    <path d="M182.973253,236.769132 L151.291807,236.769132 C150.443418,236.769132 149.755663,237.456549 149.755663,238.304521 C149.755663,239.152492 150.443418,239.839909 151.291807,239.839909 L182.973253,239.839909 C183.821642,239.839909 184.509398,239.152492 184.509398,238.304521 C184.509398,237.456549 183.821642,236.769132 182.973253,236.769132 Z" id="Path" fill="#FFFFFF"></path>
                    <path d="M247.970602,21.9253425 L216.289157,21.9253425 C215.440767,21.9253425 214.753012,22.6127591 214.753012,23.4607306 C214.753012,24.308702 215.440767,24.9961187 216.289157,24.9961187 L247.970602,24.9961187 C248.818992,24.9961187 249.506747,24.308702 249.506747,23.4607306 C249.506747,22.6127591 248.818992,21.9253425 247.970602,21.9253425 Z" id="Path" fill="#FFFFFF"></path>
                    <path d="M244.996627,28.4722374 L229.155904,28.4722374 C228.307514,28.4722374 227.619759,29.1596541 227.619759,30.0076256 C227.619759,30.855597 228.307514,31.5430137 229.155904,31.5430137 L244.996627,31.5430137 C245.845016,31.5430137 246.532771,30.855597 246.532771,30.0076256 C246.532771,29.1596541 245.845016,28.4722374 244.996627,28.4722374 Z" id="Path" fill="#FFFFFF"></path>
                    <path d="M208.288916,21.9253425 L197.474458,21.9253425 C196.626069,21.9253425 195.938313,22.6127591 195.938313,23.4607306 C195.938313,24.308702 196.626069,24.9961187 197.474458,24.9961187 L208.288916,24.9961187 C209.137305,24.9961187 209.82506,24.308702 209.82506,23.4607306 C209.82506,22.6127591 209.137305,21.9253425 208.288916,21.9253425 Z" id="Path" fill="#FFFFFF"></path>
                    <path d="M265.63012,35.0068493 L257.679036,35.0068493 C256.830647,35.0068493 256.142892,35.694266 256.142892,36.5422374 C256.142892,37.3902089 256.830647,38.0776256 257.679036,38.0776256 L265.63012,38.0776256 C266.47851,38.0776256 267.166265,37.3902089 267.166265,36.5422374 C267.166265,35.694266 266.47851,35.0068493 265.63012,35.0068493 Z" id="Path" fill="#FFFFFF"></path>
                    <path d="M251.141205,35.0068493 L219.459759,35.0068493 C218.61137,35.0068493 217.923614,35.694266 217.923614,36.5422374 C217.923614,37.3902089 218.61137,38.0776256 219.459759,38.0776256 L251.141205,38.0776256 C251.989594,38.0776256 252.677349,37.3902089 252.677349,36.5422374 C252.677349,35.694266 251.989594,35.0068493 251.141205,35.0068493 Z" id="Path" fill="#FFFFFF"></path>
                </g>
                <path d="M111.170248,28 L228,28 L228,225 L66,225 L66,73.3650774 C81.6655569,57.6163879 98.6917373,40.5030579 111.170248,28 Z" id="Path" fill="#FFFFFF"></path>
                <rect id="Rectangle" fill="#EBF4FF" x="64" y="217" width="162" height="9"></rect>
                <path d="M110.179088,29 C97.6770069,41.402439 80.6521147,58.3780488 65,74 L77.2569418,72.0609756 C92.9458273,56.4512195 97.6770069,51.7073171 110.179088,39.304878 L227,39.304878 L227,29 L110.179088,29 Z" id="Path" fill="#CFD6DF" opacity="0.4"></path>
                <path d="M191.283139,92.2690912 C174.39198,75.3658808 147.270985,74.5047534 129.341549,90.3023638 C111.412113,106.099974 108.851268,133.113745 123.492841,151.999063 C138.134413,170.884382 164.934103,175.134896 184.7006,161.706805 L202.993647,180 L215,167.99355 L196.706953,149.700355 C208.911623,131.734597 206.635402,107.632327 191.283139,92.2690912 Z M181.643541,146.655598 C172.594091,155.706548 158.98347,158.414728 147.158669,153.517241 C135.333867,148.619754 127.623752,137.08115 127.623752,124.282182 C127.623752,111.483215 135.333867,99.9446104 147.158669,95.0471239 C158.98347,90.1496373 172.594091,92.8578167 181.643541,101.908767 C194.001964,114.26243 194.007483,134.295128 181.655868,146.655598 L181.643541,146.655598 Z" id="Shape" fill="#EFEFEF" fill-rule="nonzero"></path>
                <path d="M203.856291,175.726032 L185.562857,157.394912 C170.669339,167.539118 151.190854,167.868864 135.963886,158.234559 C120.736919,148.600254 112.659875,130.835759 115.396936,113 C110.765104,131.261696 117.885685,150.490821 133.284234,161.304636 C148.682782,172.118452 169.150371,172.26345 184.699959,161.668879 L202.993393,180 L215,167.968658 L213.237223,166.264012 L203.856291,175.726032 Z" id="Path" fill="#FFFFFF" opacity="0.4"></path>
                <path d="M127.171566,96.7981658 C139.804129,84.0616907 158.722528,80.0632875 175.372104,86.6109832 C192.02168,93.1586789 203.245868,109.011107 203.969231,127 C204.57708,110.418246 196.141418,94.8271951 181.977668,86.3545122 C167.813918,77.8818293 150.186082,77.8818293 136.022332,86.3545122 C121.858582,94.8271951 113.42292,110.418246 114.030769,127 C114.476968,115.624619 119.170118,104.838231 127.171566,96.7981658 Z" id="Path" fill="#CCCCCC"></path>
                <path d="M129.341549,90.3023638 C111.412113,106.099974 108.851268,133.113745 123.492841,151.999063 C138.134413,170.884382 164.934103,175.134896 184.7006,161.706805 L202.993647,180 L215,167.99355 L196.706953,149.700355 C199.565141,145.492989 201.629139,140.949071 202.916989,136.259661 C207.128352,120.924952 203.040085,104.03444 191.283139,92.2690912 C174.39198,75.3658808 147.270985,74.5047534 129.341549,90.3023638 Z M181.643541,146.655598 C172.594091,155.706548 158.98347,158.414728 147.158669,153.517241 C135.333867,148.619754 127.623752,137.08115 127.623752,124.282182 C127.623752,111.483215 135.333867,99.9446104 147.158669,95.0471239 C158.98347,90.1496373 172.594091,92.8578167 181.643541,101.908767 C194.001964,114.26243 194.007483,134.295128 181.655868,146.655598 L181.643541,146.655598 Z" id="Shape" stroke="#2D78BC" stroke-width="2"></path>
                <path d="M110,29 L110,74 L65,74 C77.4335683,61.597561 94.3817787,44.6219512 110,29 Z" id="Path" fill="#A8D5FF"></path>
                <polyline id="Path" stroke="#2D78BC" stroke-width="2" points="65 74 110 73.6775083 110 29"></polyline>
                <path d="M110.179088,29 L227,29 L227,226 L65,226 L65,74.3745398 C80.6521147,58.6145398 97.6770069,41.5022777 110.179088,29 Z" id="Path" stroke="#2D78BC" stroke-width="2"></path>
                <path d="M214.960791,156.001467 L239.02285,156.009459 C240.657043,156.009903 241.981684,157.334611 241.982046,158.968805 L242.000012,227.039336 C242.000373,228.674099 240.675429,229.999629 239.040666,229.99999 C239.04018,229.99999 239.039694,229.99999 239.039208,229.99999 L214.97715,229.990541 C213.342957,229.990097 212.018316,228.665389 212.017954,227.031195 L211.999988,158.960664 C211.999627,157.325901 213.324571,156.000371 214.959334,156.00001 C214.95982,156.00001 214.960306,156.00001 214.960792,156.00001 Z" id="Rectangle" fill="#3997EE" transform="translate(227.000000, 193.000000) rotate(-45.000000) translate(-227.000000, -193.000000) "></path>
                <path d="M242.877502,224.185445 L195.814555,177.147125 C194.42259,175.713744 194.42259,173.433381 195.814555,172 L193.043974,174.770582 C191.652009,176.203963 191.652009,178.484326 193.043974,179.917707 L240.082293,226.956026 C241.515674,228.347991 243.796037,228.347991 245.229418,226.956026 L248,224.185445 C246.569754,225.561539 244.307749,225.561539 242.877502,224.185445 Z" id="Path" fill="#FFFFFF"></path>
                <path d="M261.939015,205.600484 L215.246278,159.033513 C213.823428,157.655496 211.559818,157.655496 210.136968,159.033513 L194.051198,175.075956 C193.400883,175.724549 193.024665,176.59712 193,177.514017 L206.824473,163.763352 C208.247323,162.385335 210.510933,162.385335 211.933783,163.763352 L258.62652,210.330323 C259.334249,211.035496 259.715198,212.002975 259.677717,213 L261.987908,210.696032 C263.356119,209.263862 263.334457,207.006278 261.939015,205.600484 Z" id="Path" fill="#A8D5FF"></path>
                <path d="M214.960791,156.001467 L239.02285,156.009459 C240.657043,156.009903 241.981684,157.334611 241.982046,158.968805 L242.000012,227.039336 C242.000373,228.674099 240.675429,229.999629 239.040666,229.99999 C239.04018,229.99999 239.039694,229.99999 239.039208,229.99999 L214.97715,229.990541 C213.342957,229.990097 212.018316,228.665389 212.017954,227.031195 L211.999988,158.960664 C211.999627,157.325901 213.324571,156.000371 214.959334,156.00001 C214.95982,156.00001 214.960306,156.00001 214.960792,156.00001 Z" id="Rectangle" stroke="#2D78BC" stroke-width="2" transform="translate(227.000000, 193.000000) rotate(-45.000000) translate(-227.000000, -193.000000) "></path>
            </g>
        </g>
    </g>
</svg>