<!-- Generated by IcoMoon.io -->
<svg version="1.1" xmlns="http://www.w3.org/2000/svg" width="1024" height="1024" viewBox="0 0 1024 1024">
<title></title>
<g id="icomoon-ignore">
</g>
<path fill="#000" d="M499.499 695.168l-183.168-183.168 183.168-183.168c16.683-16.683 16.683-43.691 0-60.331s-43.691-16.683-60.331 0l-213.333 213.333c-16.683 16.683-16.683 43.691 0 60.331l213.333 213.333c16.683 16.683 43.691 16.683 60.331 0s16.683-43.691 0-60.331zM798.165 695.168l-183.168-183.168 183.168-183.168c16.683-16.683 16.683-43.691 0-60.331s-43.691-16.683-60.331 0l-213.333 213.333c-16.683 16.683-16.683 43.691 0 60.331l213.333 213.333c16.683 16.683 43.691 16.683 60.331 0s16.683-43.691 0-60.331z"></path>
</svg>
