<!-- Generated by IcoMoon.io -->
<svg version="1.1" xmlns="http://www.w3.org/2000/svg" width="1024" height="1024" viewBox="0 0 1024 1024">
<title></title>
<g id="icomoon-ignore">
</g>
<path fill="#000" d="M832 736v-96h32v96h96v32h-96v96h-32v-96h-96v-32h96zM691.191 832v0c-12.27-24.002-19.191-51.193-19.191-80 0-97.202 78.798-176 176-176 16.64 0 32.741 2.309 48 6.625v-134.625h-864v352.262c0 17.528 14.275 31.738 31.775 31.738h627.416zM712.229 864h-648.444c-34.994 0-63.785-28.527-63.785-63.717v-576.566c0-35.247 28.693-63.717 64.088-63.717h351.912l64 128h383.813c35.482 0 64.187 28.583 64.187 63.843v243.348c56.987 29.131 96 88.414 96 156.809 0 97.202-78.798 176-176 176-54.654 0-103.489-24.912-135.771-64v0 0zM32 416h864v-63.972c0-17.689-14.522-32.028-32.095-32.028h-404.385l-62.719-128h-333.065c-17.527 0-31.736 14.57-31.736 31.738v192.262zM848 896c79.529 0 144-64.471 144-144s-64.471-144-144-144c-79.529 0-144 64.471-144 144s64.471 144 144 144v0z"></path>
</svg>
